HIERARCHY
ROOT Hips
{
    OFFSET 0.000000 0.000000 0.000000
    CHANNELS 6 Xposition Yposition Zposition Zrotation Xrotation Yrotation
    JOINT Spine
    {
        OFFSET -0.000000 7.246840 0.000000
        CHANNELS 3 Zrotation Xrotation Yrotation
        JOINT Spine1
        {
            OFFSET -0.000000 20.289354 0.000000
            CHANNELS 3 Zrotation Xrotation Yrotation
            JOINT Neck
            {
                OFFSET -0.000000 20.206032 1.836912
                CHANNELS 3 Zrotation Xrotation Yrotation
                JOINT Head
                {
                    OFFSET -0.000000 12.372654 -1.767522
                    CHANNELS 3 Zrotation Xrotation Yrotation
                    End Site
                    {
                        OFFSET -0.000000 22.094025 0.000000
                    }
                }
            }
            JOINT LeftShoulder
            {
                OFFSET 3.465871 17.201674 -0.568930
                CHANNELS 3 Zrotation Xrotation Yrotation
                JOINT LeftArm
                {
                    OFFSET 14.070313 0.000000 0.000000
                    CHANNELS 3 Zrotation Xrotation Yrotation
                    JOINT LeftForeArm
                    {
                        OFFSET 26.549477 0.000000 0.000000
                        CHANNELS 3 Zrotation Xrotation Yrotation
                        JOINT LeftHand
                        {
                            OFFSET 18.880413 0.000000 0.000000
                            CHANNELS 3 Zrotation Xrotation Yrotation
                            End Site
                            {
                                OFFSET 13.256415 0.000000 0.000000
                            }
                        }
                    }
                }
            }
            JOINT RightShoulder
            {
                OFFSET -3.526370 17.201674 -0.568930
                CHANNELS 3 Zrotation Xrotation Yrotation
                JOINT RightArm
                {
                    OFFSET -14.070313 0.000000 0.000000
                    CHANNELS 3 Zrotation Xrotation Yrotation
                    JOINT RightForeArm
                    {
                        OFFSET -26.549477 0.000000 0.000000
                        CHANNELS 3 Zrotation Xrotation Yrotation
                        JOINT RightHand
                        {
                            OFFSET -18.880413 0.000000 0.000000
                            CHANNELS 3 Zrotation Xrotation Yrotation
                            End Site
                            {
                                OFFSET -13.256415 0.000000 0.000000
                            }
                        }
                    }
                }
            }
        }
    }
    JOINT LeftUpLeg
    {
        OFFSET 8.837609 0.000000 0.000000
        CHANNELS 3 Zrotation Xrotation Yrotation
        JOINT LeftLeg
        {
            OFFSET -0.000000 -41.345005 0.000000
            CHANNELS 3 Zrotation Xrotation Yrotation
            JOINT LeftFoot
            {
                OFFSET -0.000000 -35.500874 0.000000
                CHANNELS 3 Zrotation Xrotation Yrotation
                JOINT LeftToeBase
                {
                    OFFSET -0.000000 -5.744446 13.256415
                    CHANNELS 3 Zrotation Xrotation Yrotation
                    End Site
                    {
                        OFFSET -0.000000 0.000000 3.535044
                    }
                }
            }
        }
    }
    JOINT RightUpLeg
    {
        OFFSET -8.837609 0.000000 0.000000
        CHANNELS 3 Zrotation Xrotation Yrotation
        JOINT RightLeg
        {
            OFFSET -0.000000 -41.345005 0.000000
            CHANNELS 3 Zrotation Xrotation Yrotation
            JOINT RightFoot
            {
                OFFSET -0.000000 -35.500874 0.000000
                CHANNELS 3 Zrotation Xrotation Yrotation
                JOINT RightToeBase
                {
                    OFFSET -0.000000 -5.744446 13.256415
                    CHANNELS 3 Zrotation Xrotation Yrotation
                    End Site
                    {
                        OFFSET -0.000000 0.000000 3.535044
                    }
                }
            }
        }
    }
}
MOTION
Frames:    14
Frame Time:    0.010000
2.437968    82.389450    -22.057003    6.287481    7.615417    -13.661320    -6.362703    4.419624    -6.044052    -4.779058    12.486293    -5.766769    0.533161    24.446047    10.530177    -2.829669    -45.463631    9.480758    8.985466    -5.344565    -1.466609    -56.155254    57.011078    -38.231205    3.676274    -15.936535    -26.523075    -16.629976    -13.744210    -9.566450    -3.104726    -2.025839    20.647141    73.212944    39.314114    13.643934    -7.266876    -19.509789    16.660028    -3.437304    -18.904076    14.059199    -4.309399    -1.664434    4.183660    -0.957194    -10.322133    0.928616    4.358948    4.060380    1.298213    -1.346438    0.841405    1.875447    -12.260524    -6.650374    3.988510    7.658986    -12.575896    2.748521    2.425176    5.939929    -3.978840    -1.524756    3.003464    2.649457    
2.647934    82.372978    -21.807213    6.422829    7.225720    -14.865212    -6.185695    4.185896    -6.237595    -4.659761    12.363192    -5.958944    0.111283    24.583561    11.388347    -3.921559    -45.182884    9.772366    8.914238    -5.454606    -1.265034    -54.231239    58.433613    -39.846100    3.600240    -15.118118    -26.769939    -16.943792    -13.053288    -8.524183    -3.315204    -1.905541    20.356087    73.863632    38.706528    12.948793    -7.473739    -19.350616    16.359749    -2.397665    -18.609100    13.868048    -4.643952    -1.164688    4.455881    -0.874413    -10.259115    1.376305    4.609913    3.865660    1.645866    -1.426616    0.771138    1.987939    -12.516788    -6.525021    4.547185    7.757711    -12.588249    2.844163    2.656378    5.979137    -3.574968    -1.579213    3.060569    2.742469    
2.749587    82.370209    -21.550060    6.423567    6.938233    -15.876938    -6.288808    3.709345    -6.432188    -3.806636    12.692695    -6.212552    -0.775742    24.408764    12.110363    -4.611463    -44.946987    10.099978    8.617740    -5.803405    -1.095826    -52.563084    59.636127    -41.335949    3.600262    -14.804958    -26.806494    -18.539034    -12.590080    -8.694047    -3.896733    -2.095249    19.799282    74.606087    38.279449    12.348398    -7.693069    -19.248098    15.803457    -0.677292    -18.317101    14.461858    -4.690539    -0.743780    4.652612    -0.968029    -10.133496    1.652935    4.884614    3.652302    2.013660    -1.545739    0.723023    2.154526    -12.524435    -6.357841    5.012794    7.736006    -12.650624    3.004840    2.865896    5.996216    -3.299354    -1.639587    3.060439    2.847290    
2.872682    82.368454    -21.326403    6.470340    6.694185    -16.911793    -5.955075    3.357160    -6.727939    -4.192646    12.306047    -6.450465    -0.626395    25.366079    12.966438    -5.865936    -45.157833    10.327879    8.943335    -5.205172    -1.130190    -50.909878    60.143284    -43.068066    3.759082    -14.197445    -26.598501    -20.325918    -11.908099    -8.138490    -3.508802    -1.343770    19.850870    74.419579    38.021362    12.097997    -7.862309    -19.585867    15.463683    0.758462    -18.484396    14.438263    -4.787357    -0.441614    4.846737    -1.063380    -9.922309    1.909793    5.110207    3.413826    2.433301    -1.643329    0.678512    2.291137    -12.596518    -6.315973    5.449519    7.766812    -12.652350    3.138690    3.052564    6.037476    -2.951750    -1.690527    3.078797    2.935178    
2.988202    82.366272    -21.080212    6.498692    6.424379    -17.880959    -5.924396    3.029656    -6.983013    -3.708976    12.183659    -6.743902    -1.256234    25.647068    13.847488    -6.792031    -45.068478    10.704172    8.875599    -5.204781    -1.059463    -49.379887    60.937820    -44.593357    3.547562    -13.693728    -26.654785    -21.855707    -11.433997    -7.626613    -3.919422    -1.176159    19.679913    75.039284    37.697468    11.472985    -8.221942    -19.737274    15.016875    2.300601    -18.431189    14.688843    -4.881130    -0.086484    4.924897    -1.133801    -9.746472    2.176249    5.300482    3.190021    2.875662    -1.740486    0.626728    2.427317    -12.679131    -6.200026    5.820089    7.805463    -12.668135    3.328716    3.244783    6.040881    -2.658927    -1.739828    3.101453    3.020058    
3.096973    82.379456    -20.804893    6.516541    6.178007    -18.720974    -5.885252    2.556344    -7.253254    -3.148895    12.271679    -7.046130    -2.006416    25.744877    14.682809    -7.580045    -44.810638    11.107511    8.635161    -5.378365    -1.005445    -48.505459    61.583832    -45.349277    3.434772    -12.900802    -27.039936    -23.094746    -10.752994    -6.690125    -4.379727    -1.306135    19.597990    75.986984    36.982140    10.426759    -8.453590    -19.733747    14.707888    3.817821    -18.229464    14.853644    -4.966845    0.272780    4.768786    -1.211371    -9.578987    2.568209    5.441965    2.951286    3.303257    -1.820255    0.573375    2.539349    -12.769742    -6.070498    5.792657    7.915742    -12.579281    3.877826    3.405732    5.977669    -2.432393    -1.785232    3.124826    3.098113    
3.193039    82.383278    -20.557795    6.545825    5.920555    -19.591408    -5.587939    2.208781    -7.334726    -3.288403    12.000130    -7.096856    -1.968109    26.507496    15.250566    -8.902255    -44.955959    10.984583    8.785077    -5.250372    -1.532795    -47.433468    62.209042    -46.395836    3.461527    -12.869525    -27.184528    -24.823267    -10.666871    -6.413447    -4.338410    -0.654110    18.856789    76.033730    36.511322    10.365575    -8.540863    -19.802507    14.238102    5.216792    -18.149189    14.837452    -5.070594    0.597673    4.766037    -1.271418    -9.382360    2.927014    5.533683    2.727338    3.633941    -1.886460    0.505882    2.632744    -12.866321    -5.956053    6.173425    7.815765    -12.525920    4.272121    3.679335    5.894606    -2.447995    -1.815008    3.131710    3.149551    
3.268114    82.383553    -20.316849    6.570607    5.657865    -20.429762    -5.821433    1.761879    -7.593251    -2.535272    12.241741    -7.410958    -2.472534    26.495255    16.033850    -9.884805    -44.697369    11.258927    8.578115    -5.393819    -1.369536    -46.294075    62.791866    -47.663071    3.475101    -12.336355    -27.332098    -26.556610    -10.213178    -5.588696    -4.662660    -0.644359    18.577665    76.320259    36.084766    9.891219    -8.577791    -19.499660    13.887915    6.476051    -17.709112    14.812419    -5.148432    0.929642    4.801494    -1.363159    -9.197071    3.178739    5.562007    2.519311    4.019076    -1.938010    0.410379    2.706209    -12.962852    -5.836250    6.598129    7.810870    -12.517221    4.485168    3.846327    5.875929    -2.327019    -1.858544    3.137113    3.224895    
3.343828    82.390053    -20.080952    6.592403    5.377603    -21.225620    -5.875576    1.469116    -7.807460    -2.154420    12.330057    -7.650158    -2.676601    26.417372    16.644033    -10.770481    -44.385639    11.444975    8.581012    -5.569058    -1.176019    -44.675777    63.776649    -49.493893    3.717340    -12.557858    -27.379408    -28.379612    -10.401484    -5.117325    -4.744438    -0.673363    18.162031    76.770950    35.309765    9.292445    -8.690594    -19.632711    13.443130    7.796442    -17.683737    15.043298    -5.252111    1.277202    4.848308    -1.443591    -9.016673    3.330593    5.583756    2.328828    4.443946    -1.994251    0.314276    2.786319    -13.078804    -5.703689    7.008012    7.842507    -12.493324    4.592666    3.990301    5.847029    -2.109589    -1.865302    3.160273    3.235859    
3.399657    82.385277    -19.859365    6.640153    5.136048    -21.955414    -5.957357    1.170714    -8.066588    -1.843039    12.272573    -7.929397    -2.796299    26.543556    17.386700    -11.818035    -44.072342    11.693827    8.675380    -5.318483    -0.816256    -43.170792    64.265808    -51.337135    3.827211    -12.475711    -27.528109    -30.179794    -10.349786    -4.563598    -4.699461    -0.515385    18.034599    77.070328    34.363281    8.677919    -8.806157    -19.287146    13.107257    9.297850    -17.169910    14.864153    -5.377964    1.570500    4.891254    -1.518028    -8.863029    3.593713    5.645255    2.086169    4.568725    -2.119503    0.241903    2.962555    -13.210729    -5.609488    7.429374    7.865079    -12.459360    4.735678    4.110894    5.801712    -2.012018    -1.913890    3.176104    3.319585    
3.470509    82.387680    -19.639881    6.677660    4.889101    -22.626431    -6.078187    0.897468    -8.307095    -1.253582    12.022902    -8.222772    -3.455960    27.042555    18.143661    -12.649855    -44.042423    11.973943    8.308501    -5.187878    -1.032200    -42.988468    64.456383    -51.485813    3.727541    -12.393422    -27.883574    -31.690342    -10.348937    -4.085016    -5.118562    -0.139434    18.119499    77.735130    32.054123    8.277802    -8.988870    -18.898232    12.506050    10.762218    -16.619711    14.840090    -5.552844    1.857476    5.023463    -1.527033    -8.714709    3.728645    5.664781    1.958656    4.858001    -2.143796    0.164188    2.997891    -13.363293    -5.505441    7.816451    7.900030    -12.416555    4.840509    4.215582    5.760449    -1.866897    -1.935594    3.149457    3.358121    
3.511703    82.384117    -19.422752    6.647698    4.668995    -23.252869    -6.210641    0.579969    -8.572857    -0.588946    12.062021    -8.542149    -3.988048    27.058407    18.827320    -13.495809    -43.727886    12.232544    8.021746    -5.234665    -0.874849    -41.707287    65.141403    -52.848568    3.948156    -12.634300    -28.034039    -33.565052    -10.545008    -3.801643    -5.524146    -0.048710    18.092810    78.217819    30.505932    7.896964    -9.069028    -18.055782    12.003270    12.032548    -15.678956    14.425170    -5.670123    2.160554    5.356515    -1.529416    -8.599779    3.730475    5.704466    1.834102    5.038193    -2.208636    0.079965    3.090094    -13.410171    -5.379888    8.159605    7.895722    -12.371430    4.928817    4.373565    5.700004    -1.699447    -1.941869    3.181489    3.367912    
3.554855    82.383301    -19.206779    6.601765    4.447631    -23.780752    -6.135610    0.309171    -8.793220    -0.519916    12.110208    -8.754688    -3.682870    26.983398    19.438950    -14.702086    -43.118782    12.367515    8.310166    -5.318109    -0.779794    -41.603451    65.600922    -53.448807    3.913137    -12.949216    -28.126776    -34.769321    -10.856356    -3.698648    -5.276599    -0.021790    18.003078    78.580582    28.376377    7.381292    -9.202970    -17.514807    11.343904    13.401763    -15.016512    14.281114    -5.799487    2.468879    5.706206    -1.521175    -8.496095    3.697129    5.722872    1.712130    5.188884    -2.232510    0.002564    3.124933    -13.466768    -5.208520    8.446053    7.909337    -12.349662    4.970041    4.458271    5.663514    -1.513667    -1.946720    3.188389    3.376086    
3.587298    82.378975    -19.004162    6.532935    4.264122    -24.259581    -6.222639    0.066957    -9.030370    0.016654    12.038692    -9.035819    -3.862478    27.199989    20.037914    -15.826810    -42.850163    12.432222    8.200717    -5.273593    -0.725114    -41.318729    65.892372    -54.109577    3.842921    -12.987267    -28.199043    -35.951031    -11.063984    -3.084529    -5.396384    0.121581    18.086029    78.678001    27.202709    6.968487    -9.173653    -17.119656    10.843291    14.463673    -14.588375    13.794881    -5.885707    2.785564    5.941468    -1.523728    -8.485411    3.798074    5.796236    1.636583    5.280851    -2.262328    -0.049638    3.167650    -13.491568    -5.055552    8.693505    7.925817    -12.323357    5.070903    4.538665    5.616935    -1.404533    -2.001803    3.159451    3.472591    
